# xmcd CD database file
#
# Track frame offsets:
#	150
#	41473
#	76902
#	96598
#	118583
#	147969
#	188682
#	227457
#	242428
#	269249
#	297967
#	328540
#
# Disc length: 4766 seconds
#
# Revision: 0
# Processed by: cddbd v1.5.2PL0 Copyright (c) Steve Scherf et al.
# Submitted via: CDex 1.70beta2
#
DISCID=a6129c0c
DTITLE=Dexter Gordon - 3 Classic Albums Plus
DYEAR=2014
DGENRE=Jazz
TTITLE0=Daddy Plays the Horn
TTITLE1=Confirmation
TTITLE2=Darn That Dream
TTITLE3=Number Four
TTITLE4=Autumn in New York
TTITLE5=You Can Depend on Me
TTITLE6=Diggin' for Diz
TTITLE7=Ruby My Dear
TTITLE8=Tune Up
TTITLE9=Day in Day out
TTITLE10=Stanley the Steamer
TTITLE11=This Time the Drum's on Me
EXTD=YEAR: 2014
EXTT0=
EXTT1=
EXTT2=
EXTT3=
EXTT4=
EXTT5=
EXTT6=
EXTT7=
EXTT8=
EXTT9=
EXTT10=
EXTT11=
PLAYORDER=
